HIERARCHY
ROOT Hips
{
 OFFSET 0.000000 0.000000 0.000000
 CHANNELS 6 Xposition Yposition Zposition Yrotation Xrotation Zrotation
 JOINT Chest
 {
  OFFSET 0.000000 9.585900 0.002600
  CHANNELS 3 Yrotation Xrotation Zrotation
  JOINT Chest2
  {
   OFFSET 0.000000 9.601200 -0.005300
   CHANNELS 3 Yrotation Xrotation Zrotation
   JOINT Chest3
   {
    OFFSET 0.000000 9.561800 0.000000
    CHANNELS 3 Yrotation Xrotation Zrotation
    JOINT Chest4
    {
     OFFSET 0.000000 9.552100 0.000000
     CHANNELS 3 Yrotation Xrotation Zrotation
     JOINT Neck
     {
      OFFSET 0.000000 14.453000 0.000000
      CHANNELS 3 Yrotation Xrotation Zrotation
      JOINT Head
      {
       OFFSET 0.000000 8.936500 -0.011300
       CHANNELS 3 Yrotation Xrotation Zrotation
       End Site
       {
        OFFSET 0.000000 17.073600 -0.006000
       }
      }
     }
     JOINT RightCollar
     {
      OFFSET -2.921100 9.558500 0.000000
      CHANNELS 3 Yrotation Xrotation Zrotation
      JOINT RightShoulder
      {
       OFFSET -13.519700 0.000000 0.000000
       CHANNELS 3 Yrotation Xrotation Zrotation
       JOINT RightElbow
       {
        OFFSET 0.000000 -29.696600 0.000000
        CHANNELS 3 Yrotation Xrotation Zrotation
        JOINT RightWrist
        {
         OFFSET 0.000000 -24.004700 0.000000
         CHANNELS 3 Yrotation Xrotation Zrotation
         End Site
         {
          OFFSET 0.000000 -17.728500 0.000000
         }
        }
       }
      }
     }
     JOINT LeftCollar
     {
      OFFSET 2.921100 9.558500 0.000000
      CHANNELS 3 Yrotation Xrotation Zrotation
      JOINT LeftShoulder
      {
       OFFSET 13.519700 0.000000 0.000000
       CHANNELS 3 Yrotation Xrotation Zrotation
       JOINT LeftElbow
       {
        OFFSET 0.000000 -29.696600 0.000000
        CHANNELS 3 Yrotation Xrotation Zrotation
        JOINT LeftWrist
        {
         OFFSET 0.000000 -24.004700 0.000000
         CHANNELS 3 Yrotation Xrotation Zrotation
         End Site
         {
          OFFSET 0.000000 -17.728500 0.000000
         }
        }
       }
      }
     }
    }
   }
  }
 }
 JOINT RightHip
 {
  OFFSET -7.771700 -0.012900 -0.001300
  CHANNELS 3 Yrotation Xrotation Zrotation
  JOINT RightKnee
  {
   OFFSET 0.000000 -40.869800 0.001200
   CHANNELS 3 Yrotation Xrotation Zrotation
   JOINT RightAnkle
   {
    OFFSET 0.000000 -39.717900 0.002100
    CHANNELS 3 Yrotation Xrotation Zrotation
    JOINT RightToe
    {
     OFFSET 0.000000 -4.965400 11.033500
     CHANNELS 3 Yrotation Xrotation Zrotation
     End Site
     {
      OFFSET 0.000000 -1.423100 5.872300
     }
    }
   }
  }
 }
 JOINT LeftHip
 {
  OFFSET 7.771700 -0.012900 -0.001300
  CHANNELS 3 Yrotation Xrotation Zrotation
  JOINT LeftKnee
  {
   OFFSET 0.000000 -40.869800 0.001200
   CHANNELS 3 Yrotation Xrotation Zrotation
   JOINT LeftAnkle
   {
    OFFSET 0.000000 -39.717900 0.002100
    CHANNELS 3 Yrotation Xrotation Zrotation
    JOINT LeftToe
    {
     OFFSET 0.000000 -4.965400 11.033500
     CHANNELS 3 Yrotation Xrotation Zrotation
     End Site
     {
      OFFSET 0.000000 -1.423100 5.872300
     }
    }
   }
  }
 }
}
MOTION
Frames: 13
Frame Time: 0.008333
-33.477517 52.902041 -0.849847 -176.387813 -16.303326 -1.715600 0.411912 15.363097 0.353061 0.038538 1.440299 0.043847 0.059296 2.418955 0.062672 0.368370 13.698009 0.385333 -0.963423 17.994476 0.149262 -1.055338 -6.776436 0.382909 0.931552 -0.327399 2.590869 -0.578173 -6.789701 -5.371912 -84.055855 -78.858812 114.086550 -5.063773 -8.883606 -9.254222 -5.489002 -1.109860 0.636468 3.373839 -5.970622 10.096043 67.233570 -60.772281 -107.653831 1.953917 -0.844437 12.188959 2.558915 -62.078008 9.274341 -179.865769 85.930644 177.768735 -12.098147 -22.692121 13.576255 0.011495 -0.035752 -0.001589 5.949229 -60.628989 -5.754573 120.585515 78.226378 118.560734 -6.823706 -19.380517 -0.870078 -0.002245 0.090764 0.001535
-33.474761 52.900716 -0.851597 -176.386528 -16.313712 -1.726694 0.408403 15.373706 0.356392 0.034672 1.441056 0.036583 0.064826 2.418228 0.068939 0.370535 13.701524 0.387961 -0.961059 17.994916 0.156025 -1.061856 -6.765382 0.396689 0.928367 -0.306337 2.551241 -0.531491 -6.835963 -5.381922 -84.017325 -78.606912 114.184833 -5.141828 -8.955550 -9.282478 -5.486945 -1.105811 0.649742 3.362115 -6.004296 10.121913 67.372011 -60.691803 -107.911262 1.977902 -0.937119 12.222820 2.538951 -62.066279 9.280691 179.922789 85.928617 177.536192 -11.891535 -22.709704 13.536391 -0.034889 -0.051926 -0.009929 5.929810 -60.621942 -5.728495 120.603741 78.226493 118.580083 -6.822901 -19.381699 -0.875828 -0.004010 0.090725 0.005520
-33.477071 52.898765 -0.851645 -176.386206 -16.315468 -1.705834 0.398737 15.376174 0.330800 0.030646 1.442721 0.033437 0.058782 2.424746 0.061736 0.383682 13.697855 0.395752 -0.968765 18.009859 0.171283 -1.058511 -6.769924 0.400099 0.923476 -0.292533 2.520253 -0.480954 -6.878428 -5.395475 -84.003681 -78.355298 114.316246 -5.230511 -9.044796 -9.311045 -5.488320 -1.087409 0.672800 3.329743 -6.098254 10.184025 67.491804 -60.548830 -108.139475 2.010251 -1.051229 12.263902 2.579744 -62.063883 9.220442 179.688192 85.924222 177.285629 -11.773402 -22.720473 13.514312 0.024314 -0.049007 -0.003422 5.977051 -60.614873 -5.769288 120.615683 78.234113 118.592743 -6.834745 -19.419081 -0.872059 0.003989 0.126494 0.008226
-33.474550 52.897231 -0.853147 -176.399802 -16.325314 -1.709458 0.408935 15.385913 0.334943 0.029105 1.444488 0.029697 0.058552 2.426855 0.061282 0.381834 13.702193 0.395749 -0.983950 18.036357 0.197822 -1.077718 -6.740822 0.445106 0.928550 -0.282835 2.489720 -0.395298 -6.952714 -5.449780 -83.916356 -78.064719 114.343968 -5.325805 -9.152508 -9.343741 -5.476754 -1.048898 0.706576 3.322116 -6.163217 10.170840 67.657428 -60.481468 -108.452627 2.047156 -1.190695 12.305050 2.586545 -62.057077 9.222481 179.562032 85.921126 177.148378 -11.690137 -22.722221 13.500878 0.026442 -0.049213 -0.000276 5.978121 -60.605982 -5.751204 120.642793 78.229009 118.619809 -6.831068 -19.431663 -0.873708 0.006892 0.129468 0.006032
-33.473128 52.895631 -0.854618 -176.404683 -16.335559 -1.708141 0.408093 15.397146 0.326280 0.030498 1.444691 0.031838 0.058159 2.429052 0.060789 0.377169 13.708103 0.389177 -0.988728 18.051579 0.223280 -1.082142 -6.733872 0.462750 0.939566 -0.274504 2.465516 -0.335235 -7.018335 -5.482464 -83.902862 -77.791778 114.473139 -5.419857 -9.276292 -9.387093 -5.467369 -1.039419 0.728520 3.313050 -6.201865 10.175306 67.835017 -60.414648 -108.784146 2.086885 -1.353633 12.343158 2.584462 -62.053259 9.264368 -179.915395 85.922216 177.703530 -11.962213 -22.691819 13.539788 0.015005 -0.030788 0.014916 5.982846 -60.595204 -5.747870 120.653865 78.224481 118.632290 -6.832235 -19.441483 -0.876612 0.006711 0.133390 0.006702
-33.468084 52.894202 -0.856707 -176.407086 -16.349144 -1.729057 0.410361 15.408263 0.339124 0.034039 1.446168 0.035464 0.059040 2.431131 0.062673 0.370845 13.717971 0.385821 -0.990068 18.054578 0.236433 -1.095795 -6.715285 0.489201 0.949007 -0.263777 2.432944 -0.286718 -7.082386 -5.495779 -83.963690 -77.529813 114.695841 -5.507667 -9.412602 -9.445127 -5.456408 -1.015526 0.753580 3.243118 -6.324567 10.224822 67.983536 -60.272070 -109.035091 2.127017 -1.539463 12.382313 2.538851 -62.051178 9.394282 -178.798332 85.928580 178.895211 -12.525584 -22.631611 13.621183 -0.009822 0.000137 0.034792 5.949550 -60.584930 -5.692770 120.702914 78.225286 118.682217 -6.842060 -19.415681 -0.873163 0.010176 0.100200 0.006546
-33.466685 52.892550 -0.858171 -176.410681 -16.361336 -1.728141 0.413287 15.418700 0.337141 0.033710 1.445954 0.034149 0.058663 2.433322 0.063340 0.364268 13.725951 0.371935 -0.980521 18.051011 0.254431 -1.117979 -6.685097 0.524543 0.955070 -0.243523 2.404807 -0.233190 -7.155731 -5.500095 -84.068110 -77.265139 114.967453 -5.592211 -9.556254 -9.514024 -5.459408 -0.951068 0.816619 3.210328 -6.464242 10.219748 68.158727 -60.155243 -109.338785 2.166042 -1.742983 12.420294 2.537056 -62.041877 9.412553 -178.565855 85.927541 179.134922 -12.646997 -22.620776 13.648854 -0.012771 0.004346 0.030392 5.954441 -60.573900 -5.688826 120.736152 78.218943 118.715673 -6.845792 -19.424377 -0.869487 0.008939 0.100817 0.004102
-33.463477 52.890960 -0.859658 -176.414144 -16.374823 -1.739302 0.419889 15.429600 0.347730 0.033959 1.447527 0.035058 0.057696 2.433050 0.059525 0.364816 13.732984 0.366895 -0.987775 18.063728 0.277454 -1.117542 -6.685891 0.527795 0.951869 -0.216606 2.364392 -0.169197 -7.234910 -5.497269 -84.198389 -76.992309 115.265546 -5.680977 -9.704037 -9.590194 -5.462774 -0.916326 0.849305 3.171847 -6.563685 10.228970 68.366884 -60.051006 -109.683412 2.209088 -1.956923 12.449198 2.512452 -62.023635 9.389921 -179.288744 85.919708 178.349080 -12.268301 -22.661215 13.607268 0.007541 -0.018620 0.006705 5.940299 -60.564990 -5.663475 120.775512 78.212668 118.756928 -6.845478 -19.432775 -0.869747 0.008376 0.100506 0.003628
-33.460025 52.889394 -0.860801 -176.417523 -16.388432 -1.753574 0.419714 15.430743 0.345675 0.042100 1.456573 0.044245 0.051025 2.431779 0.050454 0.370850 13.740323 0.374256 -0.991776 18.081133 0.297896 -1.118931 -6.687453 0.531609 0.950153 -0.188745 2.316600 -0.093252 -7.310924 -5.489960 -84.345253 -76.705574 115.579592 -5.781696 -9.854599 -9.673338 -5.464917 -0.876908 0.881587 3.128917 -6.669856 10.233863 68.598734 -59.946142 -110.049966 2.259206 -2.179737 12.469193 2.484651 -62.006166 9.384692 -179.780687 85.916275 177.805505 -11.965651 -22.693409 13.579081 0.022126 -0.031983 -0.009512 5.920491 -60.553930 -5.627617 120.817813 78.214666 118.799167 -6.842627 -19.443203 -0.867618 0.003507 0.104741 0.003247
-33.457622 52.888621 -0.864009 -176.428230 -16.418381 -1.762154 0.425345 15.449254 0.349989 0.034527 1.452045 0.035098 0.058593 2.440539 0.059499 0.374250 13.747453 0.373749 -0.996210 18.098987 0.314220 -1.149204 -6.643436 0.590126 0.953597 -0.175210 2.292119 -0.007113 -7.366589 -5.506524 -84.497069 -76.405746 115.900496 -5.900530 -10.012397 -9.766006 -5.464276 -0.833045 0.911283 3.081039 -6.784047 10.234640 68.856520 -59.840402 -110.445270 2.311043 -2.413929 12.487293 2.467358 -61.976638 9.430751 -179.532839 85.916752 178.049191 -12.039034 -22.687910 13.608597 0.018597 -0.023533 -0.008120 5.907924 -60.527219 -5.593899 120.858850 78.216864 118.837957 -6.842072 -19.445364 -0.863472 0.001166 0.101823 0.002008
-33.458294 52.887300 -0.864773 -176.430289 -16.437313 -1.755497 0.416038 15.453838 0.339235 0.033904 1.453851 0.035337 0.057538 2.443432 0.059873 0.382930 13.756795 0.372900 -1.008864 18.116292 0.332342 -1.163723 -6.613213 0.623750 0.952991 -0.164090 2.264129 0.089407 -7.418342 -5.518991 -84.613846 -76.091258 116.192702 -6.037127 -10.189967 -9.875854 -5.463546 -0.810202 0.924673 3.024865 -6.881103 10.244932 69.144154 -59.734406 -110.875657 2.360466 -2.665890 12.504334 2.474486 -61.964778 9.480042 -178.737118 85.919760 178.893483 -12.458976 -22.650826 13.681542 0.000687 0.003583 0.006728 5.921062 -60.506708 -5.601279 120.873574 78.219579 118.851694 -6.843006 -19.448039 -0.861316 0.001852 0.102140 0.002739
-33.462376 52.885796 -0.864281 -176.436956 -16.453529 -1.727836 0.410506 15.462252 0.311027 0.026470 1.447070 0.035138 0.056345 2.446489 0.060493 0.376578 13.766680 0.373914 -1.010156 18.134395 0.347724 -1.169422 -6.589683 0.640132 0.965665 -0.163162 2.209595 0.195445 -7.462433 -5.510996 -84.670027 -75.758530 116.435266 -6.189792 -10.395234 -10.012785 -5.443917 -0.786627 0.930083 2.960455 -6.979243 10.251317 69.467641 -59.627476 -111.344623 2.406093 -2.938234 12.513971 2.525860 -61.953021 9.462480 -178.208949 85.920889 179.450626 -12.727490 -22.629279 13.731038 -0.010183 0.018768 0.013287 5.978063 -60.484877 -5.651944 120.873521 78.224990 118.854332 -6.853339 -19.486033 -0.861234 0.013116 0.139035 0.007342
-33.461069 52.885068 -0.865489 -176.439196 -16.482556 -1.734824 0.411018 15.482855 0.318300 0.019299 1.443621 0.033648 0.050647 2.445213 0.060314 0.351105 13.769968 0.380769 -0.991570 18.160948 0.353990 -1.176761 -6.563018 0.654175 1.023883 -0.207177 2.125403 0.281837 -7.460315 -5.481937 -84.676207 -75.413551 116.642363 -6.357060 -10.630093 -10.188084 -5.409509 -0.730703 0.937940 2.896975 -7.103593 10.240636 69.831510 -59.518683 -111.852924 2.446690 -3.225452 12.513972 2.506120 -61.922421 9.478680 -178.277150 85.921571 179.367049 -12.660077 -22.640232 13.726076 0.001465 0.011779 0.007572 5.969112 -60.456369 -5.630878 120.907637 78.228333 118.889757 -6.853401 -19.494814 -0.859505 0.012916 0.142046 0.007747
